Coordinates
version=1
nRows=10
nColumns=22
inDegrees=yes

Units are S.I. units (second, meters, Newtons, ...)
If the header above contains a line with 'inDegrees', this indicates whether rotational values are in degrees (yes) or radians (no).

endheader
time	pelvis_tilt	pelvis_list	pelvis_rotation	pelvis_tx	pelvis_ty	pelvis_tz	hip_flexion_r	hip_adduction_r	hip_rotation_r	knee_angle_r	ankle_angle_r	subtalar_angle_r	hip_flexion_l	hip_adduction_l	hip_rotation_l	knee_angle_l	ankle_angle_l	subtalar_angle_l	lumbar_extension	lumbar_bending	lumbar_rotation
      4.63000000	     -5.73912217	     -0.01805306	      4.66162251	     -0.95480819	      1.01262802	      0.34679445	      6.17156736	      0.01885441	     -8.01084680	    -15.98708041	     13.28718142	      0.22416548	     23.84870851	     -6.62011529	     -7.40029286	    -25.33913693	      7.48228970	      6.36128008	     -4.43282135	     -5.55596107	      1.27008349
      4.64000000	     -5.71515983	     -0.04453575	      4.43832730	     -0.95794573	      1.01302015	      0.34766213	      6.29851303	      0.09774369	     -7.78217976	    -15.87630461	     13.16827999	      0.16384249	     23.58121234	     -6.76297441	     -7.06785091	    -26.21274819	      7.66224670	      6.38961033	     -4.35325762	     -5.48606185	      1.37624712
      4.65000000	     -5.68760622	     -0.07905852	      4.22447501	     -0.96096131	      1.01338230	      0.34840356	      6.42388624	      0.17766820	     -7.56546832	    -15.79146168	     13.05297834	      0.12535232	     23.27536589	     -6.89417532	     -6.72463769	    -27.03180126	      7.85672607	      6.42675645	     -4.27169913	     -5.39796196	      1.45480908
      4.66000000	     -5.65684389	     -0.11598937	      4.02262837	     -0.96383766	      1.01372455	      0.34903201	      6.54157799	      0.25466456	     -7.36113840	    -15.72305158	     12.95316770	      0.11638853	     22.92623342	     -7.00529747	     -6.36834402	    -27.78131398	      8.06797625	      6.45837008	     -4.18603457	     -5.30418940	      1.50935198
      4.67000000	     -5.62716459	     -0.14222950	      3.83601648	     -0.96656280	      1.01404991	      0.34951679	      6.64987406	      0.31205163	     -7.17544371	    -15.66261100	     12.87970896	      0.13343239	     22.53336603	     -7.07982287	     -6.01524223	    -28.44826285	      8.29749142	      6.46117549	     -4.09041910	     -5.21448477	      1.53872725
      4.68000000	     -5.59165451	     -0.19102081	      3.66784304	     -0.96919104	      1.01436589	      0.34987951	      6.76529272	      0.38521248	     -7.02731055	    -15.64480886	     12.77906170	      0.17510132	     22.11213723	     -7.16150639	     -5.69179093	    -29.04880480	      8.51607774	      6.46858962	     -3.99911015	     -5.09074589	      1.52810212
      4.69000000	     -5.56868447	     -0.22405431	      3.51898284	     -0.97167296	      1.01466211	      0.35012370	      6.88444137	      0.43532391	     -6.91125086	    -15.63639436	     12.69276925	      0.22338874	     21.65878600	     -7.20254542	     -5.38692991	    -29.54671130	      8.75168769	      6.44897261	     -3.88566968	     -4.98670756	      1.49620206
      4.70000000	     -5.54311950	     -0.27601468	      3.39271805	     -0.97404570	      1.01495758	      0.35024738	      7.00790938	      0.49875101	     -6.84414126	    -15.66230283	     12.57704297	      0.29403042	     21.17643022	     -7.24704435	     -5.12136092	    -29.95342330	      8.97892254	      6.41777487	     -3.77224072	     -4.85612375	      1.42903897
      4.71000000	     -5.52791635	     -0.33445317	      3.28853987	     -0.97628464	      1.01524642	      0.35026132	      7.14341210	      0.56278168	     -6.82472840	    -15.71525579	     12.44438441	      0.37699110	     20.66103609	     -7.28051559	     -4.89917505	    -30.23125231	      9.20163600	      6.37233823	     -3.64018938	     -4.71637256	      1.32974668
      4.72000000	     -5.51963843	     -0.39913771	      3.20993377	     -0.97841240	      1.01551988	      0.35015454	      7.28273691	      0.62631809	     -6.84841851	    -15.78163801	     12.29268698	      0.47098572	     20.12521326	     -7.30512854	     -4.72311499	    -30.40102117	      9.41332796	      6.31398117	     -3.49726459	     -4.57049687	      1.21326700
